# Blender 3.1.0
# www.blender.org
mtllib Light Shot.mtl
o Light Shot
v -0.267801 -1.908900 -2.442600
v -0.282200 -1.512000 -2.173400
v -0.000001 -2.459400 -2.167300
v -0.301400 -0.345700 -2.114500
v -0.000000 0.107400 -1.853900
v -0.000000 -1.987401 -1.265100
v -0.000000 -2.537201 -1.285200
v -0.000000 0.468900 -1.964000
v -0.000000 -0.165500 -0.229900
v -0.000000 2.405300 -2.481900
v -0.000000 2.627401 -1.974300
v 0.000000 2.677201 -1.503200
v -0.000000 -0.615000 -0.631500
v -0.000000 -0.374500 -0.239300
v -0.000000 -1.194700 -0.906800
v -0.000000 -1.882600 -1.078400
v -0.942000 1.565900 -2.541000
v 0.000000 2.432400 -1.209100
v -0.000000 0.866300 -2.821400
v -0.712900 2.163501 -2.416900
v 0.712900 2.163501 -2.416900
v -0.451800 -1.715300 -1.466500
v -0.501101 -2.414701 -1.568200
v -0.472400 -0.978400 -1.190300
v -0.411600 0.059200 -1.725500
v -0.565900 -0.419200 -0.944500
v -0.475500 0.381200 -1.684600
v -0.669600 -0.002400 -1.047100
v -0.623000 -0.002400 -0.505400
v -1.102200 2.141600 -1.953700
v -1.222100 2.141600 -1.523700
v -1.294800 1.591000 -1.788400
v -1.321000 1.591000 -1.485600
v -0.893400 0.620700 -0.565300
v -1.240100 1.552400 -0.949200
v -1.100200 2.065300 -1.118400
v -0.879000 0.620700 -1.771900
v -1.128800 0.620700 -1.229900
v -1.113200 0.620700 -0.666400
v -0.000000 1.486300 -3.044400
v 0.006700 2.077400 -2.849100
v 0.942000 1.565900 -2.541000
v 0.267800 -1.908900 -2.442600
v 0.282200 -1.512000 -2.173400
v 0.451800 -1.715300 -1.466500
v 0.501100 -2.414701 -1.568200
v 0.301400 -0.345700 -2.114500
v 0.472400 -0.978400 -1.190300
v 0.411600 0.059200 -1.725500
v 0.565900 -0.419200 -0.944500
v 0.475500 0.381200 -1.684600
v 0.669600 -0.002400 -1.047100
v 0.623000 -0.002400 -0.505400
v 1.102200 2.141600 -1.953700
v 1.222100 2.141600 -1.523700
v 1.294800 1.591000 -1.788400
v 1.321000 1.591000 -1.485600
v 0.893400 0.620700 -0.565300
v 1.240100 1.552400 -0.949200
v 1.100200 2.065300 -1.118400
v 0.879000 0.620700 -1.771900
v 1.128800 0.620700 -1.229900
v 1.113200 0.620700 -0.666400
v -0.000000 1.453900 -1.522900
v 0.000000 -0.159300 0.761000
v 0.000000 2.611101 -0.345200
v 0.000000 -0.388800 0.564900
v 0.000000 2.774001 -0.634100
v -1.017600 0.565400 0.454600
v -1.280500 1.600801 0.018100
v -1.138800 2.241601 -0.227200
v -1.253700 0.576000 0.127700
v -1.565700 1.636101 -0.281200
v -1.298700 2.277601 -0.489200
v 1.017600 0.565400 0.454600
v 1.280500 1.600800 0.018100
v 1.138800 2.241601 -0.227200
v 1.253700 0.576000 0.127700
v 1.565700 1.636100 -0.281200
v 1.298700 2.277601 -0.489200
v 0.000000 2.588701 -0.842900
v 1.173900 2.166301 -0.737300
v 1.333900 1.595000 -0.537900
v 1.166000 0.576000 -0.126000
v 0.000000 -0.291000 0.237000
v -1.168500 0.576000 -0.118800
v -1.342900 1.596601 -0.528000
v -1.181200 2.172801 -0.722700
v 0.000000 -0.087200 1.094600
v 0.000000 2.523701 0.150300
v 0.000000 -0.181100 1.404700
v 0.000000 2.747501 0.450000
v 0.000000 0.094600 2.016300
v 0.000000 2.776201 1.418600
v 0.000000 0.424100 2.702400
v 0.000001 1.943700 3.950201
v 0.000000 0.832700 3.155000
v 0.000001 1.779500 3.753700
v 0.000001 1.166000 3.360000
v 0.000001 1.492900 3.189400
v -1.052500 0.575400 0.845300
v -1.285000 1.575701 0.466000
v -1.142900 2.129101 0.244300
v -1.145700 0.575400 1.132500
v -1.543400 1.614100 0.751100
v -1.372900 2.205001 0.526900
v -1.256600 2.189900 1.499400
v -1.045200 0.594000 1.965600
v -1.101900 1.386801 1.753300
v -0.414700 0.933400 3.014101
v -0.684099 1.911101 3.297900
v -0.278499 1.920000 3.839700
v -0.318999 1.478800 3.475700
v -0.479399 2.332100 3.308701
v 0.000001 2.477401 3.395101
v -0.194799 1.266400 3.399200
v -0.207699 1.677900 3.643200
v 1.052500 0.575400 0.845300
v 1.285000 1.575700 0.466000
v 1.142900 2.129101 0.244300
v 1.145700 0.575400 1.132500
v 1.543401 1.614100 0.751100
v 1.372900 2.205000 0.526900
v 1.256601 2.189900 1.499400
v 1.045200 0.594000 1.965600
v 1.101900 1.386800 1.753300
v 0.414701 0.933400 3.014101
v 0.684101 1.911100 3.297900
v 0.278501 1.920000 3.839700
v 0.319001 1.478800 3.475700
v 0.479401 2.332100 3.308701
v 0.194801 1.266400 3.399200
v 0.207701 1.677900 3.643200
v 0.000000 1.425400 1.189200
v -0.487600 0.293633 0.924000
v -0.975300 1.033934 0.984700
v 0.000000 2.090534 1.111400
v 0.975300 1.033934 0.984700
v 0.487600 0.293634 0.924000
v -0.527900 0.099934 -0.023600
v -1.200800 0.992734 0.102100
v -0.527900 2.243434 0.276300
v 0.527900 2.243434 0.276300
v 1.200800 0.992734 0.102100
v 0.527900 0.099933 -0.023600
v -0.475300 0.222034 -1.079200
v -1.081100 1.004434 -1.001300
v -0.000000 2.413734 -0.838700
v 1.081100 1.004434 -1.001300
v 0.475300 0.222034 -1.079200
v 0.000000 1.108734 1.621800
v -0.000000 1.083334 -1.739200
v 0.000000 2.523934 0.317600
vn -0.5514 -0.0232 0.8340
vn -0.1888 -0.7385 0.6473
vn -0.0000 0.0356 0.9994
vn -0.0000 -0.8094 0.5873
vn 0.5514 -0.0232 0.8340
vn 0.1888 -0.7385 0.6473
vn -0.0000 0.8949 0.4462
vn -0.5794 0.7040 0.4106
vn 0.5794 0.7040 0.4106
vn 0.8689 0.0028 0.4949
vn 0.2258 -0.4884 0.8429
vn -0.8689 0.0028 0.4949
vn -0.2258 -0.4884 0.8429
vn 0.6276 -0.5185 0.5807
vn -0.0225 -0.2472 0.9687
vn -0.6276 -0.5185 0.5807
vn 0.0225 -0.2472 0.9687
vn -0.0000 -0.6726 0.7400
vn -0.0000 -0.1930 0.9812
vn -0.7806 -0.5110 0.3600
vn -0.0000 -0.8324 0.5541
vn -0.0000 -0.9319 0.3627
vn 0.7806 -0.5110 0.3600
vn -0.8190 0.5238 0.2345
vn -0.0000 0.9981 0.0621
vn 0.8190 0.5238 0.2345
vn -0.9204 -0.0423 0.3887
vn 0.9204 -0.0423 0.3887
vn -0.0000 -0.2737 0.9618
vn -0.0000 -0.9949 0.1011
vn -0.7836 -0.6190 -0.0529
vn 0.7836 -0.6190 -0.0529
vn 0.9753 -0.1145 -0.1888
vn -0.9753 -0.1145 -0.1888
vn -0.7659 0.5593 -0.3172
vn 0.7659 0.5593 -0.3172
vn 0.3904 -0.5315 -0.7517
vn -0.0000 -0.7229 -0.6910
vn -0.3904 -0.5315 -0.7517
vn -0.0000 0.9483 -0.3174
vn -0.2801 -0.3637 -0.8884
vn 0.2801 -0.3637 -0.8884
vn -0.0000 -0.3199 -0.9475
vn -0.2861 0.1388 -0.9481
vn 0.2861 0.1388 -0.9481
vn 0.8687 -0.4592 0.1858
vn 0.0308 0.2578 0.9657
vn -0.0000 -0.9562 0.2928
vn -0.0009 0.1586 0.9873
vn -0.8687 -0.4592 0.1858
vn -0.0306 0.2633 0.9642
vn -0.0000 0.2293 -0.9733
vn -0.0016 -0.3948 -0.9188
vn 0.0626 -0.5242 -0.8493
vn -0.0655 -0.5281 -0.8467
vn -0.9983 0.0533 0.0242
vn 0.3086 0.3176 0.8966
vn 0.9983 0.0533 0.0252
vn -0.2994 0.3190 0.8992
vn 0.1566 -0.3470 -0.9247
vn -0.1665 -0.3519 -0.9211
vn -0.0000 0.1447 0.9895
vn -0.6848 -0.3954 0.6122
vn -0.0000 -0.5572 0.8304
vn 0.6848 -0.3954 0.6122
vn 0.1168 0.2723 0.9551
vn -0.1168 0.2723 0.9551
vn 0.1711 0.3447 0.9230
vn -0.7246 0.6834 -0.0890
vn -0.1646 0.3488 0.9226
vn 0.7246 0.6834 -0.0889
vn -0.8118 -0.2054 0.5467
vn 0.8118 -0.2054 0.5467
vn -0.0306 -0.0546 -0.9980
vn 0.0241 -0.0597 -0.9979
vn -0.0000 0.9905 -0.1375
vn -0.0040 -0.0228 0.9997
vn -0.0000 0.2075 0.9782
vn -0.8953 -0.3880 0.2186
vn -0.8725 -0.4550 -0.1783
vn 0.8953 -0.3880 0.2186
vn 0.8725 -0.4550 -0.1783
vn -0.0042 -0.1718 -0.9851
vn -0.5586 0.3012 0.7728
vn 0.5586 0.3012 0.7728
vn -0.0000 -0.6680 0.7442
vn -0.4159 0.4836 0.7701
vn 0.4159 0.4836 0.7701
vn -0.9474 -0.0817 0.3095
vn -0.0000 -0.4371 0.8994
vn -0.0000 -0.5796 0.8149
vn 0.9474 -0.0817 0.3095
vn -0.0000 0.3884 0.9215
vn 0.8864 -0.4367 -0.1539
vn -0.8864 -0.4367 -0.1539
vn -0.9990 0.0247 0.0385
vn 0.9990 0.0247 0.0385
vn -0.9251 -0.2145 0.3134
vn -0.0000 -0.3694 0.9293
vn 0.9251 -0.2145 0.3134
vn -0.8172 -0.5364 0.2108
vn -0.0000 -0.8238 -0.5669
vn -0.0000 -0.7067 0.7075
vn 0.8172 -0.5364 0.2108
vn -0.0000 0.1562 -0.9877
vn -0.5791 0.2202 -0.7849
vn -0.7936 0.0267 -0.6079
vn 0.7936 0.0267 -0.6079
vn 0.5791 0.2202 -0.7849
vn -0.5454 0.0122 -0.8381
vn 0.5454 0.0122 -0.8381
vn 0.7898 0.6099 0.0651
vn -0.7898 0.6099 0.0651
vn -0.9576 -0.0590 -0.2818
vn 0.9576 -0.0590 -0.2818
vn -0.7138 -0.0532 -0.6984
vn -0.0000 -0.6243 -0.7812
vn -0.6405 -0.6006 -0.4786
vn 0.7138 -0.0532 -0.6984
vn 0.6405 -0.6006 -0.4786
vn -0.0000 0.9722 0.2341
vn -0.5258 -0.5625 -0.6381
vn 0.5258 -0.5625 -0.6381
vn -0.4984 0.6305 -0.5951
vn -0.0011 0.8467 -0.5321
vn 0.0067 0.5002 -0.8659
vn 0.4994 0.6304 -0.5943
vn -0.0004 -0.0143 -0.9999
vn -0.7189 0.6117 -0.3303
vn 0.7189 0.6117 -0.3303
vn -0.6882 0.2240 -0.6901
vn 0.6882 0.2240 -0.6901
vn -0.0000 0.9720 -0.2350
vn -0.0000 -0.7183 -0.6957
vn 0.8314 -0.0186 0.5554
vn -0.0000 0.6912 0.7227
vn -0.0000 -0.0178 0.9998
vn -0.8314 -0.0186 0.5554
vn 0.3997 -0.7710 0.4957
vn -0.3997 -0.7710 0.4957
vn 0.6967 0.7039 0.1380
vn 0.9953 -0.0786 0.0563
vn -0.6967 0.7039 0.1380
vn -0.9953 -0.0786 0.0563
vn 0.4385 -0.8982 0.0311
vn -0.4385 -0.8982 0.0311
vn -0.0000 0.9805 0.1967
vn -0.0000 0.8623 -0.5064
vn 0.8815 -0.0051 -0.4722
vn -0.8815 -0.0051 -0.4722
vn 0.4040 -0.7762 -0.4840
vn -0.4040 -0.7762 -0.4840
vn -0.0000 0.0589 -0.9983
vt 0.849200 0.302100
vt 0.823400 0.306100
vt 0.339100 0.085300
vt 0.336900 0.024700
vt 0.327200 0.116300
vt 0.320400 0.109500
vt 0.823400 0.232000
vt 0.322000 0.290400
vt 0.316700 0.290800
vt 0.327300 0.450900
vt 0.313000 0.428800
vt 0.415100 0.109000
vt 0.823400 0.046800
vt 0.403800 0.012200
vt 0.072100 0.526300
vt 0.526400 0.414200
vt 0.036000 0.921600
vt 0.153000 0.982100
vt 0.235600 0.982100
vt 0.489200 0.319500
vt 0.525000 0.396500
vt 0.460000 0.216300
vt 0.433000 0.125500
vt 0.091800 0.678100
vt 0.008800 0.755500
vt 0.289400 0.981400
vt 0.008800 0.579300
vt 0.062100 0.790600
vt 0.117600 0.788900
vt 0.062100 0.790600
vt 0.342800 0.144600
vt 0.913100 0.171100
vt 0.352200 0.037000
vt 0.362100 0.247000
vt 0.307400 0.435600
vt 0.394000 0.354100
vt 0.188700 0.520700
vt 0.344200 0.484500
vt 0.439400 0.456200
vt 0.169400 0.786800
vt 0.233500 0.788100
vt 0.190900 0.679600
vt 0.238900 0.679600
vt 0.423700 0.554300
vt 0.335100 0.718900
vt 0.342200 0.783300
vt 0.213800 0.579200
vt 0.315200 0.580100
vt 0.387200 0.587000
vt 0.022900 0.755500
vt 0.037100 0.755500
vt 0.089800 0.789800
vt 0.008800 0.803900
vt 0.062300 0.796800
vt 0.091800 0.678100
vt 0.008800 0.755500
vt 0.875000 0.298100
vt 0.324200 0.024500
vt 0.322900 0.137800
vt 0.342800 0.144600
vt 0.913100 0.171100
vt 0.352200 0.037000
vt 0.327300 0.257000
vt 0.362100 0.247000
vt 0.341900 0.419100
vt 0.394000 0.354100
vt 0.188700 0.520700
vt 0.344200 0.484500
vt 0.439400 0.456200
vt 0.169400 0.786800
vt 0.233500 0.788100
vt 0.190900 0.679600
vt 0.238900 0.679600
vt 0.423700 0.554300
vt 0.335300 0.718500
vt 0.341000 0.785500
vt 0.213800 0.579200
vt 0.315200 0.580100
vt 0.387200 0.587000
vt 0.386300 0.713000
vt 0.577300 0.440300
vt 0.373900 0.982100
vt 0.549900 0.421000
vt 0.354200 0.982100
vt 0.526200 0.547000
vt 0.456500 0.674100
vt 0.430400 0.784900
vt 0.504200 0.534200
vt 0.431400 0.680400
vt 0.409400 0.790100
vt 0.526200 0.547000
vt 0.456500 0.674100
vt 0.430400 0.784900
vt 0.504200 0.534200
vt 0.431400 0.680400
vt 0.409400 0.790100
vt 0.325500 0.982100
vt 0.380100 0.785400
vt 0.411000 0.674600
vt 0.476900 0.539400
vt 0.532600 0.434200
vt 0.477700 0.539200
vt 0.412100 0.674800
vt 0.381800 0.785700
vt 0.632900 0.442100
vt 0.440400 0.979000
vt 0.675800 0.430300
vt 0.477900 0.982100
vt 0.736800 0.467900
vt 0.526000 0.982100
vt 0.838800 0.501500
vt 0.560900 0.092400
vt 0.764500 0.399000
vt 0.980700 0.982100
vt 0.658400 0.140800
vt 0.764400 0.341700
vt 0.495900 0.286400
vt 0.733300 0.208500
vt 0.580400 0.291700
vt 0.578000 0.403700
vt 0.591400 0.551100
vt 0.534000 0.672800
vt 0.496100 0.782300
vt 0.628900 0.548100
vt 0.570400 0.680100
vt 0.534000 0.790000
vt 0.626900 0.791200
vt 0.714300 0.563900
vt 0.688600 0.647800
vt 0.562100 0.178300
vt 0.888400 0.611300
vt 0.613000 0.297000
vt 0.935800 0.767600
vt 0.681100 0.364700
vt 0.971100 0.869600
vt 0.687100 0.278500
vt 0.530800 0.293700
vt 0.926800 0.908400
vt 0.907800 0.982100
vt 0.693800 0.231600
vt 0.559600 0.292600
vt 0.718700 0.310900
vt 0.509600 0.289300
vt 0.591400 0.551100
vt 0.534000 0.672800
vt 0.496100 0.782300
vt 0.628900 0.548100
vt 0.570400 0.680100
vt 0.534000 0.790000
vt 0.626900 0.791200
vt 0.714300 0.563900
vt 0.688600 0.647800
vt 0.562100 0.178300
vt 0.888400 0.611300
vt 0.613000 0.297000
vt 0.935800 0.767600
vt 0.681100 0.364700
vt 0.971100 0.869600
vt 0.687100 0.278500
vt 0.530800 0.293700
vt 0.926800 0.908400
vt 0.693800 0.231600
vt 0.559600 0.292600
vt 0.718700 0.310900
vt 0.509600 0.289300
vt 0.462500 0.695900
vt 0.066200 0.310400
vt 0.061400 0.189500
vt 0.051300 0.084100
vt 0.061400 0.256700
vt 0.066200 0.377500
vt 0.141800 0.342000
vt 0.131800 0.196200
vt 0.117900 0.059200
vt 0.117900 0.059200
vt 0.131800 0.263400
vt 0.141800 0.409100
vt 0.254800 0.322100
vt 0.219700 0.194300
vt 0.206800 0.031400
vt 0.219700 0.261500
vt 0.254800 0.389200
vt 0.002700 0.244400
vt 0.292300 0.248600
vt 0.114600 0.013400
s 1
usemtl am_wbks0
f 112/134/1 117/142/2 96/113/3
f 117/142/2 98/116/4 96/113/3
f 129/157/5 96/113/3 133/164/6
f 96/113/3 98/116/4 133/164/6
f 115/139/7 114/138/8 96/114/3
f 114/138/8 112/135/1 96/114/3
f 115/139/7 96/114/3 131/161/9
f 96/114/3 129/158/5 131/161/9
f 129/157/5 133/164/6 128/155/10
f 128/155/10 133/164/6 130/159/11
f 112/134/1 111/132/12 117/142/2
f 111/132/12 113/136/13 117/142/2
f 128/155/10 130/159/11 127/153/14
f 127/153/14 130/159/11 132/162/15
f 111/132/12 110/130/16 113/136/13
f 110/130/16 116/140/17 113/136/13
f 127/153/14 132/162/15 97/115/18
f 132/162/15 99/118/19 97/115/18
f 110/130/16 97/115/18 116/140/17
f 97/115/18 99/118/19 116/140/17
f 110/131/16 108/128/20 95/111/21
f 108/128/20 93/109/22 95/111/21
f 127/154/14 95/111/21 125/151/23
f 125/151/23 95/111/21 93/109/22
f 107/127/24 114/138/8 94/110/25
f 114/138/8 115/139/7 94/110/25
f 124/150/26 94/110/25 131/161/9
f 94/110/25 115/139/7 131/161/9
f 107/127/24 109/129/27 111/133/12
f 109/129/27 110/131/16 111/133/12
f 124/150/26 128/156/10 126/152/28
f 128/156/10 127/154/14 126/152/28
f 98/117/4 117/143/2 100/120/29
f 98/117/4 100/120/29 133/165/6
f 112/135/1 114/138/8 111/133/12
f 129/158/5 128/156/10 131/161/9
f 117/143/2 113/137/13 100/120/29
f 133/165/6 100/120/29 130/160/11
f 130/160/11 100/120/29 132/163/15
f 113/137/13 116/141/17 100/120/29
f 116/141/17 99/119/19 100/120/29
f 132/163/15 100/120/29 99/119/19
f 110/130/16 95/112/21 97/115/18
f 127/153/14 97/115/18 95/112/21
f 91/107/30 93/109/22 104/124/31
f 104/124/31 93/109/22 108/128/20
f 91/107/30 121/147/32 93/109/22
f 121/147/32 125/151/23 93/109/22
f 114/138/8 107/127/24 111/133/12
f 131/161/9 128/156/10 124/150/26
f 121/147/32 122/148/33 125/151/23
f 122/148/33 126/152/28 125/151/23
f 104/124/31 108/128/20 105/125/34
f 105/125/34 108/128/20 109/129/27
f 109/129/27 108/128/20 110/131/16
f 126/152/28 127/154/14 125/151/23
f 109/129/27 107/127/24 105/125/34
f 106/126/35 105/125/34 107/127/24
f 126/152/28 122/148/33 124/150/26
f 123/149/36 124/150/26 122/148/33
f 121/147/32 91/107/30 118/144/37
f 118/144/37 91/107/30 89/105/38
f 104/124/31 101/121/39 91/107/30
f 101/121/39 89/105/38 91/107/30
f 92/108/40 106/126/35 94/110/25
f 106/126/35 107/127/24 94/110/25
f 92/108/40 94/110/25 123/149/36
f 123/149/36 94/110/25 124/150/26
f 105/125/34 102/122/41 104/124/31
f 102/122/41 101/121/39 104/124/31
f 122/148/33 121/147/32 119/145/42
f 119/145/42 121/147/32 118/144/37
f 101/121/39 134/166/43 89/105/38
f 89/105/38 134/166/43 118/144/37
f 106/126/35 103/123/44 105/125/34
f 103/123/44 102/122/41 105/125/34
f 123/149/36 122/148/33 120/146/45
f 120/146/45 122/148/33 119/145/42
f 78/94/46 75/91/47 67/83/48
f 75/91/47 65/81/49 67/83/48
f 72/88/50 67/83/48 69/85/51
f 67/83/48 65/81/49 69/85/51
f 118/144/37 134/166/43 119/145/42
f 102/122/41 134/166/43 101/121/39
f 103/123/44 134/166/43 102/122/41
f 119/145/42 134/166/43 120/146/45
f 92/108/40 90/106/52 106/126/35
f 90/106/52 103/123/44 106/126/35
f 92/108/40 123/149/36 90/106/52
f 90/106/52 123/149/36 120/146/45
f 85/101/53 86/102/54 65/81/49
f 69/85/51 65/81/49 86/102/54
f 85/101/53 65/81/49 84/100/55
f 75/91/47 84/100/55 65/81/49
f 103/123/44 90/106/52 134/166/43
f 134/166/43 90/106/52 120/146/45
f 67/83/48 72/88/50 85/101/53
f 86/102/54 85/101/53 72/88/50
f 67/83/48 85/101/53 78/94/46
f 85/101/53 84/100/55 78/94/46
f 73/89/56 72/88/50 70/86/57
f 72/88/50 69/85/51 70/86/57
f 79/95/58 76/92/59 78/94/46
f 76/92/59 75/91/47 78/94/46
f 70/86/57 69/85/51 87/103/60
f 69/85/51 86/102/54 87/103/60
f 76/92/59 83/99/61 75/91/47
f 83/99/61 84/100/55 75/91/47
f 9/16/62 29/39/63 14/21/64
f 9/16/62 14/21/64 53/69/65
f 72/88/50 73/89/56 86/102/54
f 87/103/60 86/102/54 73/89/56
f 78/94/46 84/100/55 79/95/58
f 84/100/55 83/99/61 79/95/58
f 53/69/65 58/74/66 9/16/62
f 29/39/63 9/16/62 34/44/67
f 70/86/57 71/87/68 73/89/56
f 71/87/68 74/90/69 73/89/56
f 76/92/59 79/95/58 77/93/70
f 77/93/70 79/95/58 80/96/71
f 34/44/67 39/49/72 29/39/63
f 58/74/66 53/69/65 63/79/73
f 71/87/68 70/86/57 88/104/74
f 70/86/57 87/103/60 88/104/74
f 77/93/70 82/98/75 76/92/59
f 82/98/75 83/99/61 76/92/59
f 74/90/69 71/87/68 68/84/76
f 71/87/68 66/82/77 68/84/76
f 80/96/71 68/84/76 77/93/70
f 68/84/76 66/82/77 77/93/70
f 34/44/67 9/16/62 64/80/78
f 9/16/62 58/74/66 64/80/78
f 26/36/79 29/39/63 28/38/80
f 50/66/81 52/68/82 53/69/65
f 74/90/69 88/104/74 73/89/56
f 88/104/74 87/103/60 73/89/56
f 80/96/71 79/95/58 82/98/75
f 83/99/61 82/98/75 79/95/58
f 81/97/83 66/82/77 88/104/74
f 66/82/77 71/87/68 88/104/74
f 81/97/83 82/98/75 66/82/77
f 66/82/77 82/98/75 77/93/70
f 34/44/67 64/80/78 35/45/84
f 64/80/78 58/74/66 59/75/85
f 26/36/79 13/20/86 29/39/63
f 13/20/86 14/21/64 29/39/63
f 50/66/81 53/69/65 13/20/86
f 53/69/65 14/21/64 13/20/86
f 68/84/76 81/97/83 74/90/69
f 81/97/83 88/104/74 74/90/69
f 35/45/84 64/80/78 36/46/87
f 64/80/78 59/75/85 60/76/88
f 68/84/76 80/96/71 81/97/83
f 81/97/83 80/96/71 82/98/75
f 22/31/89 6/12/90 16/23/91
f 45/60/92 16/23/91 6/12/90
f 36/46/87 64/80/78 18/26/93
f 64/80/78 60/76/88 18/26/93
f 62/78/94 63/79/73 52/68/82
f 52/68/82 63/79/73 53/69/65
f 29/39/63 39/49/72 28/38/80
f 28/38/80 39/49/72 38/48/95
f 33/43/96 39/49/72 35/45/84
f 39/49/72 34/44/67 35/45/84
f 57/73/97 59/75/85 63/79/73
f 59/75/85 58/74/66 63/79/73
f 26/36/79 24/34/98 13/20/86
f 24/34/98 15/22/99 13/20/86
f 50/66/81 13/20/86 48/64/100
f 48/64/100 13/20/86 15/22/99
f 23/32/101 3/7/102 7/13/103
f 46/61/104 7/13/103 3/7/102
f 5/10/105 4/8/106 25/35/107
f 5/11/105 49/65/108 47/63/109
f 5/11/105 47/63/109 4/9/106
f 1/1/110 3/7/102 23/32/101
f 3/7/102 43/57/111 46/61/104
f 24/34/98 22/31/89 15/22/99
f 22/31/89 16/23/91 15/22/99
f 48/64/100 15/22/99 45/60/92
f 45/60/92 15/22/99 16/23/91
f 59/75/85 57/73/97 60/76/88
f 55/71/112 60/76/88 57/73/97
f 35/45/84 36/46/87 33/43/96
f 31/41/113 33/43/96 36/46/87
f 39/49/72 33/43/96 38/48/95
f 38/48/95 33/43/96 32/42/114
f 63/79/73 62/78/94 57/73/97
f 62/78/94 56/72/115 57/73/97
f 1/2/110 43/57/111 3/7/102
f 17/24/116 19/27/117 37/47/118
f 42/55/119 61/77/120 19/27/117
f 31/41/113 36/46/87 12/19/121
f 12/19/121 36/46/87 18/26/93
f 55/71/112 12/19/121 60/76/88
f 12/19/121 18/26/93 60/76/88
f 26/36/79 28/38/80 25/35/107
f 25/35/107 28/38/80 27/37/122
f 50/66/81 49/65/108 52/68/82
f 49/65/108 51/67/123 52/68/82
f 23/33/101 7/14/103 22/31/89
f 7/14/103 6/12/90 22/31/89
f 46/62/104 45/60/92 7/14/103
f 7/14/103 45/60/92 6/12/90
f 38/48/95 37/47/118 28/38/80
f 27/37/122 28/38/80 37/47/118
f 62/78/94 52/68/82 61/77/120
f 51/67/123 61/77/120 52/68/82
f 20/28/124 10/17/125 41/52/126
f 41/52/126 10/17/125 21/29/127
f 4/8/106 24/34/98 25/35/107
f 24/34/98 26/36/79 25/35/107
f 47/63/109 49/65/108 48/64/100
f 49/65/108 50/66/81 48/64/100
f 17/25/116 40/51/128 19/27/117
f 42/56/119 19/27/117 40/50/128
f 30/40/129 32/42/114 31/41/113
f 32/42/114 33/43/96 31/41/113
f 54/70/130 55/71/112 56/72/115
f 56/72/115 55/71/112 57/73/97
f 4/8/106 2/5/131 24/34/98
f 2/5/131 22/31/89 24/34/98
f 47/63/109 48/64/100 44/59/132
f 44/59/132 48/64/100 45/60/92
f 12/19/121 11/18/133 31/41/113
f 11/18/133 30/40/129 31/41/113
f 12/19/121 55/71/112 11/18/133
f 55/71/112 54/70/130 11/18/133
f 27/37/122 8/15/134 25/35/107
f 5/10/105 25/35/107 8/15/134
f 51/67/123 49/65/108 8/15/134
f 5/11/105 8/15/134 49/65/108
f 17/24/116 37/47/118 32/42/114
f 37/47/118 38/48/95 32/42/114
f 42/55/119 56/72/115 61/77/120
f 61/77/120 56/72/115 62/78/94
f 1/3/110 23/33/101 2/5/131
f 23/33/101 22/31/89 2/5/131
f 43/58/111 44/59/132 46/62/104
f 44/59/132 45/60/92 46/62/104
f 37/47/118 19/27/117 27/37/122
f 19/27/117 8/15/134 27/37/122
f 61/77/120 51/67/123 19/27/117
f 51/67/123 8/15/134 19/27/117
f 4/9/106 47/63/109 2/6/131
f 47/63/109 44/59/132 2/6/131
f 32/42/114 30/40/129 17/24/116
f 17/24/116 30/40/129 20/28/124
f 56/72/115 42/55/119 54/70/130
f 42/55/119 21/30/127 54/70/130
f 30/40/129 11/18/133 20/28/124
f 11/18/133 10/17/125 20/28/124
f 54/70/130 21/30/127 11/18/133
f 11/18/133 21/30/127 10/17/125
f 2/6/131 44/59/132 1/4/110
f 44/59/132 43/58/111 1/4/110
f 42/56/119 40/50/128 21/30/127
f 40/50/128 41/53/126 21/30/127
f 17/25/116 20/28/124 40/51/128
f 20/28/124 41/54/126 40/51/128
usemtl am_wbks0_Light
f 138/170/135 137/169/136 151/183/137
f 137/169/136 136/168/138 151/183/137
f 139/171/139 138/170/135 151/183/137
f 136/168/138 135/167/140 151/183/137
f 135/167/140 139/171/139 151/183/137
f 137/169/136 138/170/135 143/175/141
f 138/170/135 144/176/142 143/175/141
f 137/169/136 142/174/143 136/168/138
f 136/168/138 142/174/143 141/173/144
f 145/177/145 144/176/142 139/171/139
f 138/170/135 139/171/139 144/176/142
f 140/172/146 135/167/140 141/173/144
f 135/167/140 136/168/138 141/173/144
f 140/172/146 145/177/145 135/167/140
f 139/171/139 135/167/140 145/177/145
f 153/185/147 137/169/136 143/175/141
f 137/169/136 153/185/147 142/174/143
f 148/180/148 153/185/147 143/175/141
f 142/174/143 153/185/147 148/180/148
f 148/180/148 143/175/141 149/181/149
f 143/175/141 144/176/142 149/181/149
f 148/180/148 147/179/150 142/174/143
f 141/173/144 142/174/143 147/179/150
f 145/177/145 150/182/151 144/176/142
f 144/176/142 150/182/151 149/181/149
f 140/172/146 141/173/144 146/178/152
f 141/173/144 147/179/150 146/178/152
f 145/177/145 140/172/146 150/182/151
f 140/172/146 146/178/152 150/182/151
f 148/180/148 149/181/149 152/184/153
f 147/179/150 148/180/148 152/184/153
f 149/181/149 150/182/151 152/184/153
f 146/178/152 147/179/150 152/184/153
f 150/182/151 146/178/152 152/184/153
